# xmcd CD database file
#
# Track frame offsets:
#	150
#	27022
#	43290
#	56940
#	72282
#	86067
#	98980
#	114860
#	132005
#	144292
#	166617
#	185760
#	198947
#	214945
#	227577
#	240362
#	249570
#
# Disc length: 3509 seconds
#
# Revision: 7
# Processed by: cddbd v1.5.2PL0 Copyright (c) Steve Scherf et al.
# Submitted via: CDex 2.12
#
DISCID=e70db311
DTITLE=Queen - Greatest Hits
DYEAR=1994
DGENRE=Rock
TTITLE0=Bohemian Rhapsody
TTITLE1=Another One Bites the Dust
TTITLE2=Killer Queen
TTITLE3=Fat Bottomed Girls
TTITLE4=Bicycle Race
TTITLE5=You're My Best Friend
TTITLE6=Don't Stop Me Now
TTITLE7=Save Me
TTITLE8=Crazy Little Thing Called Love
TTITLE9=Somebody To Love
TTITLE10=Now I'm Here
TTITLE11=Good Old-Fashioned Lover Boy
TTITLE12=Play The Game
TTITLE13=Flash
TTITLE14=Seven Seas Of Rhye
TTITLE15=We Will Rock You
TTITLE16=We Are the Champions
EXTD=YEAR: 1994
EXTT0=
EXTT1=
EXTT2=
EXTT3=
EXTT4=
EXTT5=
EXTT6=
EXTT7=
EXTT8=
EXTT9=
EXTT10=
EXTT11=
EXTT12=
EXTT13=
EXTT14=
EXTT15=
EXTT16=
PLAYORDER=
